# xmcd
#
# Track frame offsets: 
#        150
#        15325
#        33218
#        48630
#        68838
#        84610
#        98715
#
# Disc length: 1927 seconds
#
# Revision: 0
# Processed by: cddbd v1.5.2PL0 Copyright (c) Steve Scherf et al.
# Submitted via: ExactAudioCopy v1.1
#
DISCID=4c078507
DTITLE=Eccy - Floating Like Incense
DYEAR=2007
DGENRE=Hip-Hop
TTITLE0=Imperial Capital Instrumental
TTITLE1=Cement Of Lies Instrumental
TTITLE2=Affluence Instrumental
TTITLE3=Blue Bird Classic Instrumental
TTITLE4=Symple Walker Instrumental
TTITLE5=The Daybreak
TTITLE6=Road Novel
EXTD=
EXTT0=
EXTT1=
EXTT2=
EXTT3=
EXTT4=
EXTT5=
EXTT6=
PLAYORDER=
